<mxfile host="app.diagrams.net" modified="2022-04-04T21:07:52.166Z" agent="5.0 (Macintosh; Intel Mac OS X 10_15_7) AppleWebKit/537.36 (KHTML, like Gecko) Chrome/100.0.4896.60 Safari/537.36" etag="HjTCqK-d1JHr22k-y22b" version="17.4.0" type="github">
  <diagram id="C5RBs43oDa-KdzZeNtuy" name="Page-1">
    <mxGraphModel dx="2253" dy="826" grid="1" gridSize="10" guides="1" tooltips="1" connect="1" arrows="1" fold="1" page="1" pageScale="1" pageWidth="827" pageHeight="1169" math="0" shadow="0">
      <root>
        <mxCell id="WIyWlLk6GJQsqaUBKTNV-0" />
        <mxCell id="WIyWlLk6GJQsqaUBKTNV-1" parent="WIyWlLk6GJQsqaUBKTNV-0" />
        <mxCell id="BF53RrbmQ7XFgWfLsTqT-13" style="edgeStyle=orthogonalEdgeStyle;rounded=0;orthogonalLoop=1;jettySize=auto;html=1;entryX=0;entryY=0.5;entryDx=0;entryDy=0;" edge="1" parent="WIyWlLk6GJQsqaUBKTNV-1" source="BF53RrbmQ7XFgWfLsTqT-0" target="BF53RrbmQ7XFgWfLsTqT-1">
          <mxGeometry relative="1" as="geometry" />
        </mxCell>
        <mxCell id="BF53RrbmQ7XFgWfLsTqT-0" value="PULL THE CODE FROM GITHUB" style="rounded=0;whiteSpace=wrap;html=1;gradientColor=#ffffff;" vertex="1" parent="WIyWlLk6GJQsqaUBKTNV-1">
          <mxGeometry x="-140" y="167.5" width="170" height="105" as="geometry" />
        </mxCell>
        <mxCell id="BF53RrbmQ7XFgWfLsTqT-14" style="edgeStyle=orthogonalEdgeStyle;rounded=0;orthogonalLoop=1;jettySize=auto;html=1;entryX=0;entryY=0.5;entryDx=0;entryDy=0;" edge="1" parent="WIyWlLk6GJQsqaUBKTNV-1" source="BF53RrbmQ7XFgWfLsTqT-1" target="BF53RrbmQ7XFgWfLsTqT-2">
          <mxGeometry relative="1" as="geometry" />
        </mxCell>
        <mxCell id="BF53RrbmQ7XFgWfLsTqT-1" value="DO THE STATIC CODE ANALYSIS USING SONARQUBE WITH THE HELP OF GRADLE SONARQUBE PLUGIN" style="rounded=0;whiteSpace=wrap;html=1;" vertex="1" parent="WIyWlLk6GJQsqaUBKTNV-1">
          <mxGeometry x="80" y="168.75" width="180" height="102.5" as="geometry" />
        </mxCell>
        <mxCell id="BF53RrbmQ7XFgWfLsTqT-15" style="edgeStyle=orthogonalEdgeStyle;rounded=0;orthogonalLoop=1;jettySize=auto;html=1;entryX=0;entryY=0.5;entryDx=0;entryDy=0;" edge="1" parent="WIyWlLk6GJQsqaUBKTNV-1" source="BF53RrbmQ7XFgWfLsTqT-2" target="BF53RrbmQ7XFgWfLsTqT-3">
          <mxGeometry relative="1" as="geometry" />
        </mxCell>
        <mxCell id="BF53RrbmQ7XFgWfLsTqT-2" value="CHECK THE STATUS OF QUALITY GATE IN SONARQUBE" style="rounded=0;whiteSpace=wrap;html=1;" vertex="1" parent="WIyWlLk6GJQsqaUBKTNV-1">
          <mxGeometry x="310" y="168.75" width="200" height="101.25" as="geometry" />
        </mxCell>
        <mxCell id="BF53RrbmQ7XFgWfLsTqT-16" style="edgeStyle=orthogonalEdgeStyle;rounded=0;orthogonalLoop=1;jettySize=auto;html=1;entryX=0;entryY=0.5;entryDx=0;entryDy=0;" edge="1" parent="WIyWlLk6GJQsqaUBKTNV-1" source="BF53RrbmQ7XFgWfLsTqT-3" target="BF53RrbmQ7XFgWfLsTqT-4">
          <mxGeometry relative="1" as="geometry" />
        </mxCell>
        <mxCell id="BF53RrbmQ7XFgWfLsTqT-17" style="edgeStyle=orthogonalEdgeStyle;rounded=0;orthogonalLoop=1;jettySize=auto;html=1;entryX=0.412;entryY=-0.009;entryDx=0;entryDy=0;entryPerimeter=0;" edge="1" parent="WIyWlLk6GJQsqaUBKTNV-1" source="BF53RrbmQ7XFgWfLsTqT-3" target="BF53RrbmQ7XFgWfLsTqT-5">
          <mxGeometry relative="1" as="geometry" />
        </mxCell>
        <mxCell id="BF53RrbmQ7XFgWfLsTqT-3" value="IF SONARQUBE CHECK" style="rhombus;whiteSpace=wrap;html=1;" vertex="1" parent="WIyWlLk6GJQsqaUBKTNV-1">
          <mxGeometry x="620" y="160" width="120" height="120" as="geometry" />
        </mxCell>
        <mxCell id="BF53RrbmQ7XFgWfLsTqT-4" value="MARK CI AS FAIL AND SEND MAIL" style="ellipse;whiteSpace=wrap;html=1;" vertex="1" parent="WIyWlLk6GJQsqaUBKTNV-1">
          <mxGeometry x="820" y="179.38" width="120" height="80" as="geometry" />
        </mxCell>
        <mxCell id="BF53RrbmQ7XFgWfLsTqT-18" style="edgeStyle=orthogonalEdgeStyle;rounded=0;orthogonalLoop=1;jettySize=auto;html=1;entryX=0.5;entryY=0;entryDx=0;entryDy=0;" edge="1" parent="WIyWlLk6GJQsqaUBKTNV-1" source="BF53RrbmQ7XFgWfLsTqT-5" target="BF53RrbmQ7XFgWfLsTqT-7">
          <mxGeometry relative="1" as="geometry" />
        </mxCell>
        <mxCell id="BF53RrbmQ7XFgWfLsTqT-5" value="USING MULTISTAGE DOCKER BUILD THE CODE GENERATE ARTIFACTS AND CREATE DOCKER IMAGE" style="rounded=0;whiteSpace=wrap;html=1;" vertex="1" parent="WIyWlLk6GJQsqaUBKTNV-1">
          <mxGeometry x="610" y="350" width="170" height="110" as="geometry" />
        </mxCell>
        <mxCell id="BF53RrbmQ7XFgWfLsTqT-19" style="edgeStyle=orthogonalEdgeStyle;rounded=0;orthogonalLoop=1;jettySize=auto;html=1;entryX=0.5;entryY=0;entryDx=0;entryDy=0;" edge="1" parent="WIyWlLk6GJQsqaUBKTNV-1" source="BF53RrbmQ7XFgWfLsTqT-7" target="BF53RrbmQ7XFgWfLsTqT-8">
          <mxGeometry relative="1" as="geometry" />
        </mxCell>
        <mxCell id="BF53RrbmQ7XFgWfLsTqT-7" value="PUSH THE IMAGE TO PRIVATE REGISTRY WHICH IS NEXUS" style="rounded=0;whiteSpace=wrap;html=1;" vertex="1" parent="WIyWlLk6GJQsqaUBKTNV-1">
          <mxGeometry x="610" y="505" width="170" height="110" as="geometry" />
        </mxCell>
        <mxCell id="BF53RrbmQ7XFgWfLsTqT-24" style="edgeStyle=orthogonalEdgeStyle;rounded=0;orthogonalLoop=1;jettySize=auto;html=1;entryX=1;entryY=0.5;entryDx=0;entryDy=0;" edge="1" parent="WIyWlLk6GJQsqaUBKTNV-1" source="BF53RrbmQ7XFgWfLsTqT-8" target="BF53RrbmQ7XFgWfLsTqT-9">
          <mxGeometry relative="1" as="geometry" />
        </mxCell>
        <mxCell id="BF53RrbmQ7XFgWfLsTqT-8" value="CHECK IF ANY MISCONFIGURATIONS IN HELM CHARTS&amp;nbsp;" style="rounded=0;whiteSpace=wrap;html=1;" vertex="1" parent="WIyWlLk6GJQsqaUBKTNV-1">
          <mxGeometry x="610" y="670" width="170" height="110" as="geometry" />
        </mxCell>
        <mxCell id="BF53RrbmQ7XFgWfLsTqT-23" style="edgeStyle=orthogonalEdgeStyle;rounded=0;orthogonalLoop=1;jettySize=auto;html=1;entryX=1;entryY=0.5;entryDx=0;entryDy=0;" edge="1" parent="WIyWlLk6GJQsqaUBKTNV-1" source="BF53RrbmQ7XFgWfLsTqT-9">
          <mxGeometry relative="1" as="geometry">
            <mxPoint x="250" y="725" as="targetPoint" />
          </mxGeometry>
        </mxCell>
        <mxCell id="BF53RrbmQ7XFgWfLsTqT-27" style="edgeStyle=orthogonalEdgeStyle;rounded=0;orthogonalLoop=1;jettySize=auto;html=1;fontColor=#660033;" edge="1" parent="WIyWlLk6GJQsqaUBKTNV-1" source="BF53RrbmQ7XFgWfLsTqT-9">
          <mxGeometry relative="1" as="geometry">
            <mxPoint x="414" y="610" as="targetPoint" />
          </mxGeometry>
        </mxCell>
        <mxCell id="BF53RrbmQ7XFgWfLsTqT-9" value="IF CHECK?" style="rhombus;whiteSpace=wrap;html=1;" vertex="1" parent="WIyWlLk6GJQsqaUBKTNV-1">
          <mxGeometry x="349" y="672.5" width="130" height="105" as="geometry" />
        </mxCell>
        <mxCell id="BF53RrbmQ7XFgWfLsTqT-25" value="&lt;font color=&quot;#660033&quot;&gt;FAIL&lt;/font&gt;" style="text;html=1;align=center;verticalAlign=middle;resizable=0;points=[];autosize=1;strokeColor=none;fillColor=none;" vertex="1" parent="WIyWlLk6GJQsqaUBKTNV-1">
          <mxGeometry x="750" y="240" width="40" height="20" as="geometry" />
        </mxCell>
        <mxCell id="BF53RrbmQ7XFgWfLsTqT-26" value="MARK CI AS FAIL AND SEND MAIL" style="ellipse;whiteSpace=wrap;html=1;" vertex="1" parent="WIyWlLk6GJQsqaUBKTNV-1">
          <mxGeometry x="349" y="520" width="120" height="80" as="geometry" />
        </mxCell>
        <mxCell id="BF53RrbmQ7XFgWfLsTqT-28" value="FAIL" style="text;html=1;align=center;verticalAlign=middle;resizable=0;points=[];autosize=1;strokeColor=none;fillColor=none;fontColor=#660033;" vertex="1" parent="WIyWlLk6GJQsqaUBKTNV-1">
          <mxGeometry x="430" y="640" width="40" height="20" as="geometry" />
        </mxCell>
        <mxCell id="BF53RrbmQ7XFgWfLsTqT-31" style="edgeStyle=orthogonalEdgeStyle;rounded=0;orthogonalLoop=1;jettySize=auto;html=1;fontColor=#660033;" edge="1" parent="WIyWlLk6GJQsqaUBKTNV-1" source="BF53RrbmQ7XFgWfLsTqT-29">
          <mxGeometry relative="1" as="geometry">
            <mxPoint x="80" y="717.5" as="targetPoint" />
          </mxGeometry>
        </mxCell>
        <mxCell id="BF53RrbmQ7XFgWfLsTqT-29" value="HELM CHART PUSH TO NEXUS" style="rounded=0;whiteSpace=wrap;html=1;fontColor=#660033;" vertex="1" parent="WIyWlLk6GJQsqaUBKTNV-1">
          <mxGeometry x="110" y="680" width="140" height="75" as="geometry" />
        </mxCell>
        <mxCell id="BF53RrbmQ7XFgWfLsTqT-35" style="edgeStyle=orthogonalEdgeStyle;rounded=0;orthogonalLoop=1;jettySize=auto;html=1;entryX=1;entryY=0.5;entryDx=0;entryDy=0;fontColor=#660033;" edge="1" parent="WIyWlLk6GJQsqaUBKTNV-1" source="BF53RrbmQ7XFgWfLsTqT-30" target="BF53RrbmQ7XFgWfLsTqT-32">
          <mxGeometry relative="1" as="geometry" />
        </mxCell>
        <mxCell id="BF53RrbmQ7XFgWfLsTqT-30" value="MANUAL APPROVAL" style="ellipse;whiteSpace=wrap;html=1;fontColor=#660033;" vertex="1" parent="WIyWlLk6GJQsqaUBKTNV-1">
          <mxGeometry x="-40" y="680" width="120" height="80" as="geometry" />
        </mxCell>
        <mxCell id="BF53RrbmQ7XFgWfLsTqT-34" style="edgeStyle=orthogonalEdgeStyle;rounded=0;orthogonalLoop=1;jettySize=auto;html=1;fontColor=#660033;" edge="1" parent="WIyWlLk6GJQsqaUBKTNV-1" source="BF53RrbmQ7XFgWfLsTqT-32">
          <mxGeometry relative="1" as="geometry">
            <mxPoint x="-250" y="720" as="targetPoint" />
          </mxGeometry>
        </mxCell>
        <mxCell id="BF53RrbmQ7XFgWfLsTqT-32" value="DEPLOY ON K8S" style="rounded=0;whiteSpace=wrap;html=1;fontColor=#660033;" vertex="1" parent="WIyWlLk6GJQsqaUBKTNV-1">
          <mxGeometry x="-210" y="682.5" width="140" height="75" as="geometry" />
        </mxCell>
        <mxCell id="BF53RrbmQ7XFgWfLsTqT-33" value="SEND API TO TEST APP DEPLOYMENT" style="rounded=0;whiteSpace=wrap;html=1;fontColor=#660033;" vertex="1" parent="WIyWlLk6GJQsqaUBKTNV-1">
          <mxGeometry x="-400" y="682.5" width="140" height="75" as="geometry" />
        </mxCell>
      </root>
    </mxGraphModel>
  </diagram>
</mxfile>
